PathFileType	4	(X/Y/Z)	/Users/itak/Documents/Research/Walk-IL/dataset/trc/00381_00012.trc
DataRate	CameraRate	NumFrames	NumMarkers	Units	OrigDataRate	OrigDataStartFrame	OrigNumFrames
100.000000	100.000000	4	54	mm	100.000000	304	487
Frame#	Time	RPSI			LPSI			L3			STRN			T10			C7			CLAV			RBAK			LBAK			LSHO			LUPA			LAEL			LAOL			LWTS			LWPS			LFRA			LHPS			LHTS			RSHO			RUPA			RAEL			RAOL			RWTS			RWPS			RFRA			RIFD			RHPS			RBHD			LFHD			RFHD			LBHD			LHIP			RASI			LASI			LKNE			LTHI			LANK			LTIP			LTOE			LMT1			LMT5			LHEE			RKNE			RTHI			RANK			RTIP			RTOE			RMT1			RMT5			RHEE			RHTS			RHIP			LIFD			*53			
		X1	Y1	Z1	X2	Y2	Z2	X3	Y3	Z3	X4	Y4	Z4	X5	Y5	Z5	X6	Y6	Z6	X7	Y7	Z7	X8	Y8	Z8	X9	Y9	Z9	X10	Y10	Z10	X11	Y11	Z11	X12	Y12	Z12	X13	Y13	Z13	X14	Y14	Z14	X15	Y15	Z15	X16	Y16	Z16	X17	Y17	Z17	X18	Y18	Z18	X19	Y19	Z19	X20	Y20	Z20	X21	Y21	Z21	X22	Y22	Z22	X23	Y23	Z23	X24	Y24	Z24	X25	Y25	Z25	X26	Y26	Z26	X27	Y27	Z27	X28	Y28	Z28	X29	Y29	Z29	X30	Y30	Z30	X31	Y31	Z31	X32	Y32	Z32	X33	Y33	Z33	X34	Y34	Z34	X35	Y35	Z35	X36	Y36	Z36	X37	Y37	Z37	X38	Y38	Z38	X39	Y39	Z39	X40	Y40	Z40	X41	Y41	Z41	X42	Y42	Z42	X43	Y43	Z43	X44	Y44	Z44	X45	Y45	Z45	X46	Y46	Z46	X47	Y47	Z47	X48	Y48	Z48	X49	Y49	Z49	X50	Y50	Z50	X51	Y51	Z51	X52	Y52	Z52	X53	Y53	Z53	X54	Y54	Z54	

305	3.04	100.9670257568359	941.1699829101562	126.571662902832	102.0130386352539	920.769287109375	-6.076549053192139	97.91605377197266	1008.514709472656	71.96189117431641	324.9074096679688	1170.289672851562	73.61776733398438	78.77793884277344	1110.11328125	78.46400451660156	109.2295303344727	1358.819458007812	73.61495208740234	265.2727966308594	1286.496459960938	72.21970367431641	74.4720458984375	1212.864379882812	144.8897705078125	86.34220123291016	1320.055419921875	-23.91104507446289	166.1446533203125	1334.380737304688	-84.66405487060547	103.0046539306641	1225.088256835938	-134.7560272216797	50.52874755859375	1037.6962890625	-143.5376434326172	25.17142486572266	1027.774169921875	-61.90633773803711	72.50859832763672	801.6542358398438	-118.6944427490234	1.901541590690613	812.5239868164062	-159.5511779785156	26.03301429748535	935.2786254882812	-151.1421661376953	-17.86184692382812	728.3327026367188	-148.2351226806641	35.00498580932617	701.9456176757812	-128.5183563232422	173.0104064941406	1345.183837890625	229.1196899414062	168.6715850830078	1279.319091796875	291.7153015136719	237.1742248535156	1028.67578125	346.9888610839844	217.6103363037109	1002.185913085938	255.5319671630859	469.439697265625	964.8689575195312	317.4148864746094	450.3815612792969	927.367431640625	378.9736022949219	293.61865234375	993.5323486328125	361.7745971679688	604.4035034179688	859.5188598632812	328.7105712890625	520.8449096679688	875.9760131835938	383.2276916503906	143.8459625244141	1547.18603515625	148.4250335693359	293.2181396484375	1553.271362304688	17.68757057189941	275.7196350097656	1558.393310546875	139.1789398193359	148.5934906005859	1537.718872070312	-13.79675006866455	200.4304504394531	914.3634033203125	-109.1549224853516	310.3022766113281	926.6876220703125	211.7516479492188	310.1278381347656	922.6365966796875	-54.8847770690918	435.2771301269531	472.5857238769531	-53.95137405395508	365.4139709472656	593.9060668945312	-75.99568939208984	508.5142211914062	29.97351264953613	-16.26936912536621	475.8395385742188	238.6788330078125	-47.11151504516602	697.3265380859375	92.40911865234375	69.32973480224609	621.3478393554688	70.48277282714844	92.14005279541016	632.09130859375	53.95608520507812	-12.05295276641846	465.593017578125	23.98830223083496	35.09530639648438	105.1215438842773	447.8942565917969	206.1494140625	211.0317993164062	691.4602661132812	247.4507446289062	-103.0976257324219	72.20970916748047	151.0219116210938	66.00417327880859	324.8702087402344	183.5350189208984	58.33593368530273	34.25969314575195	65.14878845214844	-16.92145347595215	49.666015625	46.78387451171875	-23.87089729309082	42.71837997436523	146.8768615722656	-181.4122467041016	90.69763946533203	104.7091522216797	562.5186767578125	917.5972900390625	344.0225219726562	171.5325012207031	923.6279907226562	249.353515625	-0.1076739355921745	639.809814453125	-102.0827178955078	nan	nan	nan	
306	3.05	114.9570846557617	941.0000610351562	126.0568161010742	116.0783386230469	921.3486328125	-6.79787015914917	112.2709045410156	1007.738830566406	71.32270050048828	337.5653381347656	1170.489135742188	73.02050018310547	91.95180511474609	1109.199951171875	77.37315368652344	121.0248260498047	1358.281372070312	72.27011871337891	277.614501953125	1286.612060546875	71.35086059570312	87.35189819335938	1212.147705078125	143.7086791992188	98.71844482421875	1319.294555664062	-25.3478832244873	178.6863250732422	1333.993041992188	-85.85151672363281	116.2517395019531	1224.348022460938	-136.0574645996094	64.54422760009766	1036.768920898438	-144.8996887207031	38.88276290893555	1026.810668945312	-63.35954284667969	87.31632232666016	800.860107421875	-119.559684753418	16.9190502166748	811.3817138671875	-160.8610992431641	40.49009704589844	934.2265625	-152.4743804931641	-2.635725736618042	727.0986328125	-149.411376953125	50.50053405761719	700.8780517578125	-129.4036102294922	184.5447692871094	1344.97021484375	227.9653930664062	180.1230773925781	1279.028076171875	290.4568176269531	247.580078125	1028.035034179688	345.4289245605469	228.5229034423828	1001.928100585938	253.8180694580078	479.1537475585938	960.5816040039062	316.2723693847656	459.3404235839844	923.4164428710938	377.7887573242188	303.764404296875	992.114990234375	360.308837890625	612.1058349609375	852.69384765625	327.4909362792969	529.23046875	870.6316528320312	382.0754089355469	154.7306213378906	1546.933227539062	147.5768737792969	304.1728210449219	1553.452270507812	16.9185905456543	286.6405639648438	1558.366333007812	138.4133605957031	159.5721893310547	1537.693969726562	-14.64534187316895	214.231201171875	915.399658203125	-110.2545928955078	324.198486328125	925.8934326171875	211.0489959716797	323.9115600585938	923.2342529296875	-55.76239776611328	447.9420471191406	472.6912536621094	-52.4740104675293	378.497802734375	593.8677368164062	-75.6474609375	509.7954711914062	30.34122657775879	-15.40746116638184	484.1871337890625	237.8595123291016	-45.33710098266602	701.890380859375	83.44252777099609	70.58128356933594	624.7203369140625	64.25605010986328	93.43426513671875	634.3201293945312	49.09218597412109	-10.92538547515869	466.896484375	25.32980918884277	36.02946472167969	117.2160873413086	447.5644836425781	204.7809906005859	224.1238098144531	690.3126831054688	245.9376831054688	-100.6463012695312	75.87371063232422	151.6197204589844	75.11767578125	325.2589416503906	183.1341400146484	58.53205108642578	34.20293045043945	65.29447174072266	-15.67350196838379	51.10201263427734	47.09861755371094	-22.62246131896973	42.91371917724609	147.1721954345703	-178.0593872070312	97.539306640625	105.1081848144531	571.2973022460938	911.5151977539062	342.8487243652344	185.4096374511719	922.640625	248.7782287597656	15.10824871063232	638.4661865234375	-102.7019882202148	nan	nan	nan	
307	3.06	129.0606842041016	940.9993896484375	125.5621871948242	130.2250671386719	922.2238159179688	-7.517313480377197	126.8694152832031	1007.117004394531	70.62491607666016	350.3484191894531	1171.00390625	72.48125457763672	105.1962890625	1108.498657226562	76.14272308349609	132.8671112060547	1357.970092773438	70.88339996337891	290.0411987304688	1287.013427734375	70.51788330078125	100.3410720825195	1211.639526367188	142.4332122802734	111.1800918579102	1318.757690429688	-26.84161186218262	191.3303070068359	1333.8681640625	-87.05263519287109	129.7128448486328	1223.821899414062	-137.4141387939453	78.96449279785156	1036.00634765625	-146.3950042724609	52.92486572265625	1025.964233398438	-64.98405456542969	102.8196487426758	800.2952880859375	-120.649658203125	32.59618377685547	810.3425903320312	-162.3677368164062	55.46951675415039	933.3260498046875	-153.9693756103516	13.40653324127197	725.9414672851562	-150.8120574951172	66.78075408935547	699.8827514648438	-130.4883270263672	196.0586547851562	1344.9951171875	226.7902679443359	191.4723205566406	1278.952270507812	289.1407165527344	257.7926025390625	1027.61474609375	343.9383850097656	239.2711944580078	1001.8876953125	252.1733551025391	488.4891052246094	955.9063720703125	315.1677856445312	467.8546142578125	919.2305908203125	376.6796569824219	313.7012329101562	990.8140869140625	358.9124755859375	618.9874267578125	845.0526123046875	326.2485656738281	536.997802734375	864.813720703125	380.9831237792969	165.5896759033203	1546.924682617188	146.6980438232422	315.1378784179688	1553.919067382812	16.15934944152832	297.5559387207031	1558.630126953125	137.6479034423828	170.5830688476562	1537.919921875	-15.52133464813232	228.1851959228516	916.7802124023438	-111.3435287475586	338.201416015625	925.3849487304688	210.2928924560547	337.826171875	924.166015625	-56.61071014404297	460.33447265625	472.9530944824219	-51.29003143310547	391.3614501953125	594.064208984375	-75.52417755126953	511.1314697265625	31.17838478088379	-14.59156799316406	492.5161437988281	237.3258209228516	-43.77064514160156	706.4382934570312	75.0272216796875	71.65414428710938	628.0285034179688	58.68339538574219	94.56267547607422	636.4630126953125	44.94100952148438	-9.966207504272461	468.3572998046875	27.05488967895508	36.95684432983398	130.1828918457031	447.2870788574219	203.6628265380859	237.6786956787109	689.36376953125	244.4842071533203	-97.74272155761719	79.81504058837891	152.4013671875	84.97447204589844	325.8081970214844	183.1193389892578	58.63519668579102	34.1678581237793	65.50827789306641	-14.19264030456543	52.63448333740234	47.5555419921875	-21.22268867492676	43.00453948974609	147.5355529785156	-173.873046875	104.9446487426758	105.6751556396484	579.5133056640625	904.7483520507812	341.6542663574219	199.4118804931641	921.8511962890625	248.1772918701172	31.12427520751953	637.2215576171875	-103.5298919677734	nan	nan	nan	
308	3.07	143.2010192871094	941.1320190429688	125.0832214355469	144.3594970703125	923.3650512695312	-8.225865364074707	141.6107025146484	1006.683166503906	69.88657379150391	363.2274780273438	1171.823852539062	72.01008605957031	118.4667129516602	1108.048706054688	74.87298583984375	144.7472991943359	1357.884765625	69.46694946289062	302.5200805664062	1287.688720703125	69.72966766357422	113.344841003418	1211.352905273438	141.0812530517578	123.7090072631836	1318.452514648438	-28.37498092651367	204.0564117431641	1334.004028320312	-88.25166320800781	143.3660430908203	1223.513061523438	-138.8114013671875	93.77932739257812	1035.416259765625	-148.0163269042969	67.32280731201172	1025.2255859375	-66.76518249511719	119.0115432739258	799.9474487304688	-121.9791870117188	48.92255020141602	809.4227905273438	-164.0773162841797	70.96237945556641	932.587890625	-155.6241149902344	30.2486515045166	724.8789672851562	-152.4438018798828	83.82105255126953	699.00830078125	-131.8210754394531	207.5499572753906	1345.261474609375	225.6035308837891	202.7226867675781	1279.105346679688	287.7828369140625	267.8064880371094	1027.425903320312	342.4994812011719	249.8024291992188	1002.09228515625	250.5705108642578	497.4081420898438	950.8807983398438	314.1038818359375	475.8915405273438	914.8435668945312	375.6493225097656	323.4051818847656	989.6497802734375	357.572509765625	625.0003662109375	836.6904907226562	325.0199279785156	544.0750732421875	858.5905151367188	379.9648742675781	176.4308319091797	1547.141967773438	145.7927551269531	326.11279296875	1554.649536132812	15.41340065002441	308.4642028808594	1559.163940429688	136.8856048583984	181.6256103515625	1538.378051757812	-16.42120170593262	242.2322845458984	918.516845703125	-112.3542556762695	352.2080688476562	925.17236328125	209.4941101074219	351.8136291503906	925.44970703125	-57.38711929321289	472.4862365722656	473.3541564941406	-50.40437698364258	404.0222778320312	594.513427734375	-75.62478637695312	512.5170288085938	32.28102493286133	-13.85444450378418	500.7291564941406	237.0365447998047	-42.4542236328125	710.7645263671875	67.35538482666016	72.61202239990234	631.1261596679688	53.89160919189453	95.54141998291016	638.47900390625	41.57527542114258	-9.159200668334961	469.8911437988281	28.90510368347168	37.79513931274414	144.1165313720703	447.0047302246094	202.8654479980469	251.6901702880859	688.6068725585938	243.1046600341797	-94.29436492919922	84.02346801757812	153.3956298828125	95.70383453369141	326.4769897460938	183.5559844970703	58.6504020690918	34.14289474487305	65.78022003173828	-12.40205955505371	54.24634170532227	48.20318222045898	-19.66726875305176	42.98249435424805	147.970703125	-168.6842803955078	112.9034805297852	106.4577178955078	587.1156005859375	897.3699340820312	340.4643249511719	213.4567260742188	921.2362060546875	247.5570983886719	47.92865371704102	636.1307983398438	-104.6266174316406	nan	nan	nan	
